<svg width="42" height="42" viewBox="0 0 42 42" fill="none" xmlns="http://www.w3.org/2000/svg">
<g clip-path="url(#clip0)">
<path d="M23.3327 19.3808L20.4449 18.744C19.3464 18.4953 18.082 18.1667 18.082 17.1376C18.082 16.1063 18.969 15.3857 20.5702 15.3857C23.7973 15.3857 23.5025 17.5894 25.1047 17.5894C25.9477 17.5894 26.6857 17.0969 26.6857 16.2499C26.6857 14.2735 23.5025 12.7903 20.8022 12.7903C17.8708 12.7903 14.7492 14.0273 14.7492 17.322C14.7492 18.9086 15.3195 20.5966 18.4617 21.3795L22.3633 22.3475C23.5441 22.6366 23.8396 23.2967 23.8396 23.8922C23.8396 24.8824 22.8498 25.8498 21.0566 25.8498C17.5539 25.8498 18.04 23.1713 16.1629 23.1713C15.3195 23.1713 14.7075 23.7486 14.7075 24.5723C14.7075 26.1784 16.6699 28.3216 21.0566 28.3216C25.2303 28.3216 27.2984 26.3226 27.2984 23.6454C27.2984 21.9167 26.4963 20.0814 23.3327 19.3808Z" fill="white"/>
<path d="M21 0C9.40379 0 0 9.34454 0 20.8677C0 32.3908 9.40379 41.7354 21 41.7354C32.5962 41.7354 42 32.3908 42 20.8677C42 9.34454 32.5962 0 21 0ZM31.9335 31.7014C30.5528 33.0741 28.718 33.8285 26.7659 33.8285C25.5015 33.8285 24.2633 33.5018 23.1697 32.8869C22.4599 33.012 21.7328 33.078 21.0074 33.078C19.3405 33.078 17.7229 32.7532 16.2012 32.1122C14.7297 31.4957 13.4099 30.6102 12.2752 29.4834C11.1418 28.3568 10.2517 27.0453 9.63034 25.5837C8.98563 24.0706 8.65942 22.4642 8.65942 20.8075C8.65942 20.0981 8.72351 19.3877 8.84528 18.6926C8.2451 17.6198 7.92563 16.406 7.92563 15.1709C7.92563 13.2308 8.68634 11.4066 10.0665 10.0349C11.4472 8.66249 13.283 7.90689 15.2354 7.90689C16.4312 7.90689 17.613 8.20334 18.6634 8.75834C18.6653 8.75802 18.6676 8.75802 18.6692 8.75738C19.435 8.61155 20.2217 8.53799 21.0074 8.53799C22.674 8.53799 24.2912 8.86246 25.8129 9.50215C27.2828 10.1202 28.6042 11.0048 29.7373 12.1313C30.8719 13.2582 31.7618 14.5704 32.3838 16.0316C33.0285 17.5444 33.3547 19.1511 33.3547 20.8075C33.3547 21.5542 33.2839 22.3015 33.149 23.0316C33.7533 24.1085 34.0747 25.3264 34.0747 26.5657C34.0744 28.5058 33.3146 30.3303 31.9335 31.7014Z" fill="white"/>
</g>
<defs>
<clipPath id="clip0">
<rect width="42" height="41.7354" fill="white"/>
</clipPath>
</defs>
</svg>
