<svg width="77" height="87" viewBox="0 0 77 87" fill="none" xmlns="http://www.w3.org/2000/svg">
<path d="M2.50877 78.7888V72.7964C2.50877 71.7477 1 71.7477 1 72.7964V79.6876C1 80.167 1.40234 80.2868 1.60351 80.2868H10.0526C11.1088 80.2868 11.1088 78.7888 10.0526 78.7888H2.50877Z" fill="#2274A5"/>
<path d="M1 68.0024C1 69.0511 2.50877 69.0511 2.50877 68.0024V30.2504L38.7193 2.68536L74.9298 30.4002V78.7887H61.8035C60.7474 78.7887 60.7474 80.2868 61.8035 80.2868H75.9859C76.4386 80.2868 76.4386 79.9872 76.4386 79.6876V29.6511L53.9579 12.5081L52.2982 11.2425L39.3087 1.33707C38.7193 0.887643 38.7193 0.887643 38.1158 1.33707L1 29.6511V68.0024Z" fill="#2274A5"/>
<path d="M53.9579 12.5081V7.32946H66.3298V17.6663C66.3298 18.4154 67.8386 18.4154 67.8386 17.6663V6.43061C67.8386 5.98118 67.6877 5.83137 67.3859 5.83137H52.9879C52.4491 5.83137 52.2982 6.13099 52.2982 6.58042V11.2425L53.9579 12.5081Z" fill="#2274A5"/>
<path d="M53.9579 12.5081L76.4386 29.6511V79.6876C76.4386 79.9872 76.4386 80.2868 75.9859 80.2868H61.8035C60.7474 80.2868 60.7474 78.7887 61.8035 78.7887H74.9298V30.4002L38.7193 2.68536L2.50877 30.2504V68.0024C2.50877 69.0511 1 69.0511 1 68.0024V29.6511L38.1158 1.33707C38.7193 0.887643 38.7193 0.887643 39.3087 1.33707L52.2982 11.2425M53.9579 12.5081V7.32946H66.3298V17.6663C66.3298 18.4154 67.8386 18.4154 67.8386 17.6663V6.43061C67.8386 5.98118 67.6877 5.83137 67.386 5.83137H52.9879C52.4491 5.83137 52.2982 6.13099 52.2982 6.58042V11.2425M53.9579 12.5081L52.2982 11.2425M2.50877 78.7888V72.7964C2.50877 71.7477 1 71.7477 1 72.7964V79.6876C1 80.167 1.40234 80.2868 1.60351 80.2868H10.0526C11.1088 80.2868 11.1088 78.7888 10.0526 78.7888H2.50877Z" stroke="#2274A5"/>
<path d="M28.7614 31.1118C30.1193 31.1118 32.8351 29.9133 32.8351 28.1156V22.7224C32.8351 21.0745 30.5161 20.0258 28.7614 20.0258C27.0066 20.0258 24.5368 21.0745 24.5368 22.7224V28.1156C24.5368 29.7635 27.4035 31.1118 28.7614 31.1118Z" fill="white"/>
<path d="M48.8281 31.1118C50.6386 31.1118 52.9017 29.9133 52.9017 28.1156V22.7224C52.9017 21.0745 50.5828 20.0258 48.8281 20.0258C47.0733 20.0258 44.6035 21.0745 44.6035 22.7224V28.1156C44.6035 29.7635 46.8666 31.1118 48.8281 31.1118Z" fill="white"/>
<path d="M36.1544 41.5985V37.8532C34.3438 35.6061 31.3263 35.3064 28.007 35.3064C25.593 35.3064 18.5017 36.6547 17.5965 44.295V60.1749H19.8596L21.5193 45.0441C21.821 43.6958 23.4807 44.1452 23.3298 45.0441L20.3123 69.4631H33.4386V55.9802C33.4386 55.6806 34.9474 54.1825 37.6631 53.5832C37.0596 53.1338 36.3052 51.9953 36.3052 51.0365V46.3924C36.3052 44.4448 39.021 43.0965 41.1333 43.0965C43.0947 43.0965 45.8105 44.4448 45.8105 46.3924V50.7369L45.8105 50.7466C45.8105 52.177 45.0058 53.1338 44.6035 53.4334C45.6596 53.2836 49.7333 55.2311 49.7333 55.8304V65.7178C50.3368 69.3133 51.9965 82.946 52.7509 85.3429H54.8631C55.7684 85.3429 55.4666 63.6205 55.1649 61.8228V42.9467C55.1649 42.0479 56.6737 42.1977 56.6737 42.9467V60.1749H59.8421V38.4524C59.8421 38.003 55.014 35.3064 49.2807 35.3064C42.0386 35.3064 38.4175 37.4038 37.6631 38.6023V41.5985C37.6631 42.3475 36.1544 42.3475 36.1544 41.5985Z" fill="white"/>
<path d="M37.814 46.692V50.8867C37.814 52.0851 39.6245 53.2836 41.1333 53.2836C42.3403 53.2836 44.1509 52.235 44.1509 50.8867V46.692C44.1509 45.4935 42.2381 44.5946 41.1333 44.5946C40.0772 44.5946 37.814 45.3437 37.814 46.692Z" fill="white"/>
<path d="M37.2105 85.4927H38.2667C38.5081 85.0133 40.2281 76.5041 40.8316 71.2608C40.9824 70.3619 42.2649 70.5117 42.3403 71.2608C42.4912 72.7589 43.8491 79.8 46.2631 85.4927H47.1684C48.0737 82.946 46.2631 68.5642 44.4526 60.1749C44.3017 59.4258 45.8105 59.1262 45.9614 60.1749L47.7719 69.7627H48.2245V56.5794C47.621 55.5308 44.3451 54.6319 41.7368 54.6319C39.7754 54.6319 36.607 54.9315 34.9474 56.5794V69.7627H35.4L37.2105 60.1749C37.5123 59.1262 38.8702 59.5756 38.7193 60.4745L36.7579 70.5117C36.607 71.111 36.607 82.6463 37.2105 85.4927Z" fill="white"/>
<path d="M29.6667 85.4927H31.3263C31.766 85.4927 32.6327 76.3049 33.0968 71.3849L33.1368 70.9612H29.0631L28.7614 72.3095L29.6667 85.4927Z" fill="white"/>
<path d="M23.6316 70.9612H27.5544C27.5544 73.0585 24.8386 82.3467 23.4807 85.4927H21.6702L23.6316 70.9612Z" fill="white"/>
<path fill-rule="evenodd" clip-rule="evenodd" d="M55.6175 86.9908C56.221 86.9908 56.2843 85.9422 56.3719 85.3429C57.4582 77.9124 57.0257 66.5668 56.6737 61.8228H60.5965C61.2 61.8228 61.3509 61.3234 61.3509 61.0737V38.003C61.3509 36.6547 55.3158 33.8083 49.2807 33.8083C43.6043 33.8083 39.7104 35.4173 37.612 36.8045C36.944 37.2462 36.458 37.5156 36.1544 37.8532V41.5985C36.1544 42.3475 37.6631 42.3475 37.6631 41.5985V38.6023C38.4175 37.4038 42.0386 35.3064 49.2807 35.3064C55.014 35.3064 59.8421 38.003 59.8421 38.4524V60.1749H56.6737V42.9467C56.6737 42.1977 55.1649 42.0479 55.1649 42.9467V61.8228C55.4666 63.6205 55.7684 85.3429 54.8631 85.3429H52.7509C51.9965 82.946 50.3368 69.3133 49.7333 65.7178V55.8304C49.7333 55.2311 45.6596 53.2836 44.6035 53.4334C45.0058 53.1338 45.8105 52.177 45.8105 50.7466L45.8105 50.7369V46.3924C45.8105 44.4448 43.0947 43.0965 41.1333 43.0965C39.021 43.0965 36.3052 44.4448 36.3052 46.3924V51.0365C36.3052 51.9953 37.0596 53.1338 37.6631 53.5832C34.9474 54.1825 33.4386 55.6806 33.4386 55.9802V69.4631H20.3123L23.3298 45.0441C23.4807 44.1452 21.821 43.6958 21.5193 45.0441L19.8596 60.1749H17.5965V44.295C18.5017 36.6547 25.593 35.3064 28.007 35.3064C31.3263 35.3064 34.3438 35.6061 36.1544 37.8532C36.458 37.5156 36.944 37.2462 37.612 36.8045C35.4 35.0068 32.8351 33.8083 29.214 33.8083C23.1789 33.8083 16.8421 36.5049 16.0877 44.0727V61.0737C16.0877 61.673 16.5403 61.673 16.8421 61.673H19.7088L18.6526 70.0623C18.6526 70.7814 19.055 70.9612 19.2561 70.9612H21.9719L20.0105 86.2418C20.0105 86.6912 20.3123 86.9908 20.614 86.9908H24.2351C24.9593 86.9908 26.7497 80.8986 27.5544 77.8524L28.1579 86.427C28.1579 87.1178 29.0631 86.9908 29.6667 86.9908H32.3824C32.7445 86.9908 32.9357 86.2917 32.986 85.9422L34.6456 71.2608H35.2491C34.9474 74.257 35.5006 82.5964 36.0035 86.6912C36.0296 86.9035 36.3052 86.9908 36.4561 86.9908H38.8702C39.3228 86.9908 39.4737 86.427 39.6245 85.9422L41.7368 76.6539C41.9782 77.7326 43.0444 83.6187 43.5474 86.427C43.6982 86.9908 44.1509 86.9908 44.4526 86.9908H48.0737C48.8281 86.9908 48.8281 85.293 48.8281 84.4441L48.9789 73.3581L51.0912 86.2418C51.2421 86.9908 51.7953 86.9908 52.1474 86.9908H55.6175ZM27.5544 70.9612H23.6316L21.6702 85.4927H23.4807C24.8386 82.3467 27.5544 73.0585 27.5544 70.9612ZM31.3263 85.4927H29.6667L28.7614 72.3095L29.0631 70.9612H33.1368L33.0968 71.3849C32.6327 76.3049 31.766 85.4927 31.3263 85.4927ZM38.2667 85.4927H37.2105C36.607 82.6463 36.607 71.111 36.7579 70.5117L38.7193 60.4745C38.8702 59.5756 37.5123 59.1262 37.2105 60.1749L35.4 69.7627H34.9474V56.5794C36.607 54.9315 39.7754 54.6319 41.7368 54.6319C44.3451 54.6319 47.621 55.5308 48.2245 56.5794V69.7627H47.7719L45.9614 60.1749C45.8105 59.1262 44.3017 59.4258 44.4526 60.1749C46.2631 68.5642 48.0737 82.946 47.1684 85.4927H46.2631C43.8491 79.8 42.4912 72.7589 42.3403 71.2608C42.2649 70.5117 40.9824 70.3619 40.8316 71.2608C40.2281 76.5041 38.5081 85.0133 38.2667 85.4927ZM37.814 50.8867V46.692C37.814 45.3437 40.0772 44.5946 41.1333 44.5946C42.2381 44.5946 44.1509 45.4935 44.1509 46.692V50.8867C44.1509 52.235 42.3403 53.2836 41.1333 53.2836C39.6245 53.2836 37.814 52.0851 37.814 50.8867Z" fill="#5FAD56"/>
<path fill-rule="evenodd" clip-rule="evenodd" d="M48.8281 32.7597C51.6947 32.7597 54.5614 30.3627 54.5614 28.1156V22.4228C54.5614 20.4753 51.9965 18.3779 48.8281 18.3779C45.6596 18.3779 43.0947 20.3255 43.0947 22.4228V28.1156C43.0947 30.3627 45.9614 32.7597 48.8281 32.7597ZM52.9017 28.1156C52.9017 29.9133 50.6386 31.1118 48.8281 31.1118C46.8666 31.1118 44.6035 29.7635 44.6035 28.1156V22.7224C44.6035 21.0745 47.0733 20.0258 48.8281 20.0258C50.5828 20.0258 52.9017 21.0745 52.9017 22.7224V28.1156Z" fill="#5FAD56"/>
<path fill-rule="evenodd" clip-rule="evenodd" d="M28.7614 32.7597C31.6281 32.7597 34.4947 30.3627 34.4947 28.1156V22.4228C34.4947 20.4753 31.9298 18.3779 28.7614 18.3779C25.593 18.3779 23.0281 20.3255 23.0281 22.4228V28.1156C23.0281 30.3627 25.8947 32.7597 28.7614 32.7597ZM32.8351 28.1156C32.8351 29.9133 30.1193 31.1118 28.7614 31.1118C27.4035 31.1118 24.5368 29.7635 24.5368 28.1156V22.7224C24.5368 21.0745 27.0066 20.0258 28.7614 20.0258C30.5161 20.0258 32.8351 21.0745 32.8351 22.7224V28.1156Z" fill="#5FAD56"/>
</svg>
