<svg width="42" height="42" viewBox="0 0 42 42" fill="none" xmlns="http://www.w3.org/2000/svg">
<g clip-path="url(#clip0)">
<path fill-rule="evenodd" clip-rule="evenodd" d="M21 42C32.598 42 42 32.598 42 21C42 9.40202 32.598 0 21 0C9.40202 0 0 9.40202 0 21C0 32.598 9.40202 42 21 42ZM32.7902 8.07164C33.11 7.93083 33.4937 8.00123 33.7432 8.25085C33.999 8.50047 34.0694 8.87809 33.9287 9.20451L21.6802 37.4816C21.5459 37.7824 21.2644 37.9808 20.9382 38H20.8871C20.5865 38 20.2986 37.8336 20.1451 37.5712L14.2927 27.6057L4.43638 22.0118C4.15496 21.8517 3.98226 21.5445 4.00145 21.2181C4.02064 20.8917 4.21892 20.6037 4.51953 20.4692L32.7902 8.07164ZM14.7788 25.8904L29.2467 11.5087L6.79014 21.3589L14.7788 25.8904ZM16.0069 27.1065L20.7719 35.2286L30.5579 12.6415L16.0069 27.1065Z" fill="white"/>
</g>
<defs>
<clipPath id="clip0">
<rect width="42" height="42" fill="white"/>
</clipPath>
</defs>
</svg>
